<svg width="1200" height="900" viewBox="0 0 1200 900" fill="none" xmlns="http://www.w3.org/2000/svg">
  <rect width="1200" height="900" fill="#050813"/>
  <ellipse cx="1020" cy="170" rx="200" ry="120" fill="#8B5CF6" fill-opacity="0.14"/>
  <rect x="70" y="80" width="1060" height="320" rx="28" fill="#091224" stroke="#72F0FF" stroke-opacity="0.18"/>
  <rect x="70" y="450" width="500" height="340" rx="28" fill="#091224" stroke="#72F0FF" stroke-opacity="0.18"/>
  <rect x="630" y="450" width="500" height="340" rx="28" fill="#091224" stroke="#72F0FF" stroke-opacity="0.18"/>
  <path d="M170 360L530 170H670L1030 360H170Z" fill="url(#roadB)"/>
  <path d="M575 170H625L684 360H516L575 170Z" fill="#EAF2FF" fill-opacity="0.25"/>
  <g>
    <circle cx="835" cy="687" r="62" fill="#09111E" stroke="#51A8FF" stroke-opacity="0.55" stroke-width="4"/>
    <circle cx="915" cy="687" r="62" fill="#09111E" stroke="#FF9551" stroke-opacity="0.55" stroke-width="4"/>
    <path d="M775 635C810 610 860 600 906 603C955 606 1002 623 1038 650L1071 676L1027 691L958 662H848L805 706H744L775 635Z" fill="#A83131"/>
  </g>
  <text x="110" y="136" fill="#9FB8FF" font-size="28" font-family="Arial, sans-serif" letter-spacing="7">CONTINUOUS HIGHWAY LOOP</text>
  <text x="108" y="507" fill="#9FB8FF" font-size="24" font-family="Arial, sans-serif" letter-spacing="6">SUSPENSION TUNING</text>
  <text x="668" y="507" fill="#9FB8FF" font-size="24" font-family="Arial, sans-serif" letter-spacing="6">PHYSICS REVIEW</text>
  <defs>
    <linearGradient id="roadB" x1="600" y1="170" x2="600" y2="360" gradientUnits="userSpaceOnUse">
      <stop stop-color="#162344"/>
      <stop offset="1" stop-color="#08101D"/>
    </linearGradient>
  </defs>
</svg>

